<svg width="163" height="215" viewBox="0 0 163 215" fill="none" xmlns="http://www.w3.org/2000/svg">
<g filter="url(#filter0_f_51_366)">
<g clip-path="url(#clip0_51_366)">
<path d="M142.519 180.861C141.661 180.521 140.828 180.118 140.033 179.62C112.515 162.519 82.3894 138.912 55.1749 113.15C49.0047 107.291 48.7277 97.5915 54.5868 91.4227C60.4458 85.2538 70.1465 84.9777 76.3166 90.8368C102.06 115.208 130.442 137.464 156.244 153.517C163.475 157.996 165.68 167.467 161.201 174.696C157.234 181.099 149.318 183.552 142.519 180.861Z" fill="#295C99"/>
<path d="M163.604 124.427C163.255 124.289 162.937 124.163 162.6 123.993C115.766 101.563 79.7323 81.0921 52.4641 61.4084C45.574 56.4402 44.0155 46.8213 49.0154 39.9449C53.9834 33.056 63.5907 31.5304 70.4808 36.4987C96.2285 55.1029 130.711 74.6655 175.879 96.2895C183.545 99.948 186.783 109.129 183.125 116.794C179.605 124.109 171.039 127.369 163.604 124.427Z" fill="#295C99"/>
<path d="M65.5909 67.8895C60.9839 66.0662 56.8588 64.1397 53.5074 62.1152C46.2387 57.732 43.9257 48.2554 48.3086 40.9879C52.6915 33.7204 62.1689 31.4086 69.4376 35.7918C76.3694 40.0049 96.1151 46.7541 130.663 53.1517C157.165 58.0556 183.508 60.9489 194.774 60.1533C203.237 59.5709 210.589 65.9713 211.172 74.4327C211.756 82.894 205.355 90.2449 196.893 90.8274C179.924 92.0115 147.598 87.5219 125.058 83.3777C109.438 80.5029 83.7963 75.0947 65.5909 67.8895Z" fill="url(#paint0_linear_51_366)"/>
<path d="M67.6698 171.741C60.0762 168.735 56.1364 160.305 58.7851 152.498C61.5218 144.469 70.2431 140.168 78.3053 142.918C102.428 151.142 125.3 153.984 146.267 151.333C154.702 150.262 162.37 156.236 163.442 164.67C164.514 173.105 158.54 180.771 150.105 181.842C124.464 185.069 96.9643 181.754 68.3688 172.017C68.1146 171.917 67.8922 171.829 67.6698 171.741Z" fill="url(#paint1_linear_51_366)"/>
<path d="M60.0978 116.311C52.7902 113.419 48.763 105.395 51.006 97.6848C53.3807 89.549 61.9292 84.8487 70.0853 87.2683C110.554 99.1325 132.788 99.2237 167.321 94.8865C175.743 93.8474 183.424 99.7899 184.496 108.224C185.536 116.646 179.593 124.325 171.158 125.396C153.254 127.643 137.784 128.942 120.546 127.926C102.63 126.861 83.8546 123.325 61.4574 116.776C61 116.631 60.5426 116.487 60.0978 116.311Z" fill="url(#paint2_linear_51_366)"/>
</g>
</g>
<defs>
<filter id="filter0_f_51_366" x="0" y="0" width="221.776" height="214.219" filterUnits="userSpaceOnUse" color-interpolation-filters="sRGB">
<feFlood flood-opacity="0" result="BackgroundImageFix"/>
<feBlend mode="normal" in="SourceGraphic" in2="BackgroundImageFix" result="shape"/>
<feGaussianBlur stdDeviation="3" result="effect1_foregroundBlur_51_366"/>
</filter>
<linearGradient id="paint0_linear_51_366" x1="51.7904" y1="31.8067" x2="204.9" y2="93.9791" gradientUnits="userSpaceOnUse">
<stop stop-color="#295C99"/>
<stop offset="1" stop-color="#4289DE"/>
</linearGradient>
<linearGradient id="paint1_linear_51_366" x1="62.7091" y1="142.657" x2="158.788" y2="181.381" gradientUnits="userSpaceOnUse">
<stop stop-color="#295C99"/>
<stop offset="1" stop-color="#4289DE"/>
</linearGradient>
<linearGradient id="paint2_linear_51_366" x1="57.2703" y1="81.8291" x2="177.653" y2="130.365" gradientUnits="userSpaceOnUse">
<stop stop-color="#295C99"/>
<stop offset="1" stop-color="#4289DE"/>
</linearGradient>
<clipPath id="clip0_51_366">
<rect width="165.451" height="152" fill="white" transform="translate(61.9352 6) rotate(21.592)"/>
</clipPath>
</defs>
</svg>
