<svg width="211" height="203" viewBox="0 0 211 203" fill="none" xmlns="http://www.w3.org/2000/svg">
<g clip-path="url(#clip0_51_365)">
<path d="M136.752 174.861C135.894 174.521 135.062 174.118 134.267 173.62C106.748 156.519 76.6228 132.912 49.4083 107.15C43.2381 101.291 42.9611 91.5915 48.8201 85.4227C54.6792 79.2538 64.3799 78.9777 70.55 84.8368C96.2937 109.208 124.675 131.464 150.477 147.517C157.708 151.996 159.913 161.467 155.435 168.696C151.468 175.099 143.552 177.552 136.752 174.861Z" fill="#295C99"/>
<path d="M157.837 118.427C157.488 118.289 157.17 118.163 156.833 117.993C109.999 95.5627 73.9656 75.0921 46.6975 55.4084C39.8073 50.4402 38.2488 40.8213 43.2487 33.9449C48.2168 27.056 57.824 25.5304 64.7142 30.4987C90.4618 49.1029 124.944 68.6655 170.112 90.2895C177.778 93.948 181.017 103.129 177.358 110.794C173.839 118.109 165.272 121.369 157.837 118.427Z" fill="#295C99"/>
<path d="M59.8242 61.8895C55.2172 60.0662 51.0921 58.1397 47.7407 56.1152C40.472 51.732 38.159 42.2554 42.5419 34.9879C46.9249 27.7204 56.4023 25.4086 63.671 29.7918C70.6028 34.0049 90.3484 40.7541 124.896 47.1517C151.399 52.0556 177.742 54.9489 189.008 54.1533C197.47 53.5709 204.822 59.9713 205.406 68.4327C205.989 76.894 199.589 84.2449 191.126 84.8274C174.158 86.0115 141.832 81.5219 119.291 77.3777C103.671 74.5029 78.0297 69.0947 59.8242 61.8895Z" fill="url(#paint0_linear_51_365)"/>
<path d="M61.9031 165.741C54.3096 162.735 50.3697 154.305 53.0185 146.498C55.7552 138.469 64.4765 134.168 72.5386 136.918C96.6615 145.142 119.534 147.984 140.501 145.333C148.936 144.262 156.604 150.236 157.676 158.67C158.747 167.105 152.773 174.771 144.338 175.842C118.697 179.069 91.1976 175.754 62.6021 166.017C62.348 165.917 62.1255 165.829 61.9031 165.741Z" fill="url(#paint1_linear_51_365)"/>
<path d="M54.3311 110.311C47.0235 107.419 42.9963 99.395 45.2393 91.6848C47.614 83.549 56.1624 78.8487 64.3186 81.2683C104.787 93.1325 127.021 93.2237 161.554 88.8865C169.977 87.8474 177.657 93.7899 178.729 102.224C179.769 110.646 173.827 118.325 165.392 119.396C147.488 121.643 132.017 122.942 114.78 121.926C96.8635 120.861 78.0878 117.325 55.6907 110.776C55.2333 110.631 54.7759 110.487 54.3311 110.311Z" fill="url(#paint2_linear_51_365)"/>
</g>
<defs>
<linearGradient id="paint0_linear_51_365" x1="46.0237" y1="25.8067" x2="199.133" y2="87.9791" gradientUnits="userSpaceOnUse">
<stop stop-color="#295C99"/>
<stop offset="1" stop-color="#4289DE"/>
</linearGradient>
<linearGradient id="paint1_linear_51_365" x1="56.9424" y1="136.657" x2="153.021" y2="175.381" gradientUnits="userSpaceOnUse">
<stop stop-color="#295C99"/>
<stop offset="1" stop-color="#4289DE"/>
</linearGradient>
<linearGradient id="paint2_linear_51_365" x1="51.5036" y1="75.8291" x2="171.886" y2="124.365" gradientUnits="userSpaceOnUse">
<stop stop-color="#295C99"/>
<stop offset="1" stop-color="#4289DE"/>
</linearGradient>
<clipPath id="clip0_51_365">
<rect width="165.451" height="152" fill="white" transform="translate(56.1685) rotate(21.592)"/>
</clipPath>
</defs>
</svg>
