<svg width="338" height="493" viewBox="0 0 338 493" fill="none" xmlns="http://www.w3.org/2000/svg">
<g clip-path="url(#clip0_51_379)">
<path d="M332.299 425.626C330.211 424.8 328.184 423.819 326.249 422.606C259.266 380.981 185.939 323.52 119.696 260.813C104.677 246.552 104.003 222.942 118.265 207.926C132.526 192.911 156.138 192.239 171.157 206.5C233.819 265.823 302.903 319.995 365.706 359.07C383.307 369.972 388.675 393.024 377.774 410.622C368.117 426.208 348.849 432.176 332.299 425.626Z" fill="#295C99"/>
<path d="M383.622 288.262C382.772 287.925 381.998 287.619 381.178 287.205C267.18 232.608 179.471 182.781 113.098 134.869C96.3267 122.776 92.5332 99.3626 104.703 82.6249C116.796 65.8567 140.181 62.1433 156.952 74.2365C219.624 119.521 303.557 167.138 413.501 219.773C432.16 228.678 440.043 251.026 431.138 269.683C422.571 287.488 401.719 295.424 383.622 288.262Z" fill="#295C99"/>
<path d="M145.049 150.645C133.836 146.207 123.795 141.517 115.637 136.589C97.9445 125.92 92.3144 102.853 102.983 85.1638C113.651 67.474 136.72 61.8469 154.413 72.516C171.285 82.7711 219.348 99.1991 303.44 114.771C367.95 126.708 432.071 133.751 459.493 131.814C480.091 130.396 497.988 145.975 499.408 166.571C500.828 187.167 485.248 205.06 464.651 206.478C423.347 209.36 344.663 198.432 289.797 188.344C251.777 181.347 189.363 168.183 145.049 150.645Z" fill="url(#paint0_linear_51_379)"/>
<path d="M150.11 403.427C131.626 396.112 122.037 375.592 128.484 356.59C135.145 337.046 156.374 326.576 175.998 333.269C234.715 353.288 290.387 360.207 341.423 353.753C361.955 351.146 380.62 365.688 383.229 386.218C385.838 406.748 371.296 425.409 350.765 428.015C288.351 435.869 221.415 427.802 151.811 404.101C151.193 403.856 150.651 403.642 150.11 403.427Z" fill="url(#paint1_linear_51_379)"/>
<path d="M131.679 268.507C113.891 261.467 104.089 241.937 109.549 223.169C115.329 203.366 136.137 191.925 155.989 197.814C254.494 226.693 308.612 226.915 392.669 216.358C413.17 213.829 431.865 228.293 434.474 248.823C437.006 269.322 422.542 288.014 402.01 290.62C358.43 296.09 320.773 299.252 278.816 296.778C235.206 294.186 189.505 285.579 134.988 269.638C133.875 269.287 132.762 268.936 131.679 268.507Z" fill="url(#paint2_linear_51_379)"/>
</g>
<defs>
<linearGradient id="paint0_linear_51_379" x1="111.458" y1="62.8159" x2="484.139" y2="214.149" gradientUnits="userSpaceOnUse">
<stop stop-color="#295C99"/>
<stop offset="1" stop-color="#4289DE"/>
</linearGradient>
<linearGradient id="paint1_linear_51_379" x1="138.035" y1="332.635" x2="371.9" y2="426.894" gradientUnits="userSpaceOnUse">
<stop stop-color="#295C99"/>
<stop offset="1" stop-color="#4289DE"/>
</linearGradient>
<linearGradient id="paint2_linear_51_379" x1="124.796" y1="184.575" x2="417.818" y2="302.716" gradientUnits="userSpaceOnUse">
<stop stop-color="#295C99"/>
<stop offset="1" stop-color="#4289DE"/>
</linearGradient>
<clipPath id="clip0_51_379">
<rect width="402.723" height="369.981" fill="white" transform="translate(136.151) rotate(21.592)"/>
</clipPath>
</defs>
</svg>
